<svg version="1.1" id="Layer_1" xmlns="http://www.w3.org/2000/svg" xmlns:xlink="http://www.w3.org/1999/xlink" x="0px" y="0px"
	 width="100%" viewBox="0 0 512 512" enable-background="new 0 0 512 512" xml:space="preserve">
<path fill="#FFFFFF" opacity="1.000000" stroke="none" 
	d="
M513.000000,87.000000 
	C513.000000,228.928696 513.000000,370.857391 513.000000,513.000000 
	C369.643402,513.000000 226.286713,513.000000 82.678116,512.650513 
	C92.947197,509.861237 103.785019,508.326416 113.918411,504.779266 
	C131.146408,498.748627 145.446747,488.053955 157.415771,474.143585 
	C169.346130,460.278168 177.431229,444.522949 182.450623,427.077606 
	C191.810547,436.169403 203.359207,438.968567 215.005905,436.591583 
	C229.363815,433.661316 243.231171,428.327545 257.679626,424.021423 
	C276.120239,416.631989 294.311462,409.529510 312.213776,401.761169 
	C321.448730,397.753876 330.169952,392.562714 339.414429,388.065308 
	C360.667175,409.177338 381.779266,429.983246 402.502930,451.169159 
	C409.122406,457.936279 421.736389,456.948364 426.068542,448.640900 
	C429.933441,441.229462 433.801361,433.807526 437.309296,426.224335 
	C447.425873,404.355133 454.014313,381.405212 455.838715,357.389618 
	C457.142456,340.227600 455.510315,323.149048 449.384186,306.791016 
	C447.553650,301.903168 445.729492,297.012939 444.039398,291.799500 
	C445.971405,288.897919 447.841309,286.369141 449.549469,283.735504 
	C461.654327,265.072205 472.322998,245.617203 480.863678,225.072632 
	C484.664154,215.930603 487.656311,206.452560 491.333801,196.911957 
	C494.941956,184.756927 498.966095,172.961624 501.353058,160.843826 
	C505.140594,141.615814 507.872711,122.178474 510.964966,102.815895 
	C511.802856,97.569412 512.330139,92.273323 513.000000,87.000000 
z"/>
<path fill="#FFFFFF" opacity="1.000000" stroke="none" 
	d="
M1.000002,432.000000 
	C1.000000,288.405457 1.000000,144.810898 1.000000,1.000000 
	C142.689926,1.000000 284.379944,1.000000 426.308838,1.362365 
	C418.708679,2.477053 410.817017,2.880466 403.041687,4.054406 
	C386.908447,6.490248 370.713226,8.760592 354.779144,12.193034 
	C341.960297,14.954409 329.488190,19.325275 316.482056,22.995472 
	C311.417816,24.627050 306.562347,25.871878 302.080170,27.929739 
	C285.257141,35.653511 268.338104,43.219414 251.888184,51.686028 
	C241.487350,57.039238 231.854675,63.884945 221.503174,70.034805 
	C219.895279,69.598328 218.598175,69.319557 217.437714,68.758286 
	C202.878448,61.716637 187.408676,58.495979 171.351791,58.031189 
	C149.423737,57.396458 128.143921,61.084061 107.743958,69.054810 
	C94.490425,74.233284 81.537422,80.185745 68.483597,85.869118 
	C57.134598,90.810249 54.893185,104.091850 64.298599,113.107079 
	C85.312210,133.248962 105.520508,154.231018 126.010712,175.232819 
	C118.635094,190.081650 110.780968,204.332962 104.139565,219.128632 
	C98.669853,231.313995 94.637642,244.144638 89.676910,256.945251 
	C86.091614,268.125580 82.840836,279.063171 79.493561,289.971130 
	C74.810036,305.233490 75.954475,319.416901 86.614090,331.902313 
	C64.159065,338.463562 44.901440,349.322693 29.490313,366.855072 
	C17.371620,380.641846 8.858202,396.061127 4.902759,413.980560 
	C3.578077,419.981781 2.299601,425.993225 1.000002,432.000000 
z"/>
<path fill="#FF6881" opacity="1.000000" stroke="none" 
	d="
M316.862213,22.982004 
	C329.488190,19.325275 341.960297,14.954409 354.779144,12.193034 
	C370.713226,8.760592 386.908447,6.490248 403.041687,4.054406 
	C410.817017,2.880466 418.708679,2.477053 426.773834,1.362365 
	C445.687561,1.000000 464.375122,1.000000 483.697693,1.327334 
	C485.898346,2.082969 487.463928,2.511270 489.035950,3.357929 
	C489.693207,9.679583 490.779022,15.572481 490.920441,21.487957 
	C491.566711,48.517727 490.104095,75.414978 486.131744,102.209259 
	C482.459534,126.979004 476.759155,151.211288 468.709717,174.829559 
	C424.812256,131.089996 381.199615,87.514687 337.601898,43.924465 
	C330.654266,36.978027 323.773743,29.964514 316.862213,22.982004 
z"/>
<path fill="#F9DA60" opacity="1.000000" stroke="none" 
	d="
M1.000002,432.468658 
	C2.299601,425.993225 3.578077,419.981781 4.902759,413.980560 
	C8.858202,396.061127 17.371620,380.641846 29.490313,366.855072 
	C44.901440,349.322693 64.159065,338.463562 86.934990,332.029968 
	C95.499023,339.951538 103.352379,347.806885 110.842407,355.781952 
	C96.603569,361.861237 86.440872,371.728516 79.866791,385.263733 
	C73.195885,398.998291 72.272797,413.734161 73.252579,428.587921 
	C73.740570,435.986145 79.626945,440.858063 87.212067,440.886993 
	C94.332939,440.914185 101.528381,440.843658 108.565247,439.889069 
	C131.884659,436.725647 148.904572,424.775269 158.607559,402.949036 
	C159.274979,403.564514 159.711441,404.069092 160.004608,404.948151 
	C158.607880,408.919159 157.429047,412.543732 156.089081,416.107758 
	C145.991150,442.966431 128.800644,463.753448 103.307487,477.309326 
	C90.420273,484.162079 76.611565,488.643158 62.126141,489.763245 
	C49.782921,490.717651 37.305882,490.246643 24.898878,489.951111 
	C17.974884,489.786194 11.072987,488.693420 4.097063,487.596497 
	C3.021997,481.116180 2.010998,475.058075 1.000000,469.000000 
	C1.000000,456.979095 1.000000,444.958221 1.000002,432.468658 
z"/>
<path fill="#FFB358" opacity="1.000000" stroke="none" 
	d="
M4.161127,488.018738 
	C11.072987,488.693420 17.974884,489.786194 24.898878,489.951111 
	C37.305882,490.246643 49.782921,490.717651 62.126141,489.763245 
	C76.611565,488.643158 90.420273,484.162079 103.307487,477.309326 
	C128.800644,463.753448 145.991150,442.966431 156.089081,416.107758 
	C157.429047,412.543732 158.607880,408.919159 160.297516,405.130493 
	C162.815643,406.942871 164.897583,408.947357 167.135239,411.248962 
	C172.242584,416.677338 177.194199,421.808563 182.145813,426.939789 
	C177.431229,444.522949 169.346130,460.278168 157.415771,474.143585 
	C145.446747,488.053955 131.146408,498.748627 113.918411,504.779266 
	C103.785019,508.326416 92.947197,509.861237 82.213104,512.650513 
	C69.979103,513.000000 57.958210,513.000000 45.250130,512.647827 
	C38.738956,511.519958 32.864014,511.008301 27.104696,509.897308 
	C20.818592,508.684662 13.377934,509.104797 9.588114,502.787354 
	C6.937679,498.369263 5.912310,492.976288 4.161127,488.018738 
z"/>
<path fill="#DF4C65" opacity="1.000000" stroke="none" 
	d="
M468.999481,174.988907 
	C476.759155,151.211288 482.459534,126.979004 486.131744,102.209259 
	C490.104095,75.414978 491.566711,48.517727 490.920441,21.487957 
	C490.779022,15.572481 489.693207,9.679583 489.412720,3.395371 
	C498.137573,5.578333 504.735657,10.416951 508.611511,18.353489 
	C510.424011,22.064899 511.558319,26.107502 513.000000,30.000002 
	C513.000000,48.687561 513.000000,67.375122 513.000000,86.531342 
	C512.330139,92.273323 511.802856,97.569412 510.964966,102.815895 
	C507.872711,122.178474 505.140594,141.615814 501.353058,160.843826 
	C498.966095,172.961624 494.941956,184.756927 491.038147,196.746857 
	C483.314697,189.818970 476.205383,182.841125 469.069458,175.644943 
	C469.042816,175.426620 468.999481,174.988907 468.999481,174.988907 
z"/>
<path fill="#FFFFFF" opacity="1.000000" stroke="none" 
	d="
M4.097059,487.596497 
	C5.912310,492.976288 6.937679,498.369263 9.588114,502.787354 
	C13.377934,509.104797 20.818592,508.684662 27.104696,509.897308 
	C32.864014,511.008301 38.738956,511.519958 44.781471,512.647827 
	C30.406635,513.000000 15.813272,513.000000 1.000000,513.000000 
	C1.000000,498.646515 1.000000,484.291931 1.000000,469.468658 
	C2.010998,475.058075 3.021997,481.116180 4.097059,487.596497 
z"/>
<path fill="#FFFFFF" opacity="1.000000" stroke="none" 
	d="
M513.000000,29.531343 
	C511.558319,26.107502 510.424011,22.064899 508.611511,18.353489 
	C504.735657,10.416951 498.137573,5.578333 489.406311,2.977014 
	C487.463928,2.511270 485.898346,2.082969 484.166382,1.327334 
	C493.593140,1.000000 503.186279,1.000000 513.000000,1.000000 
	C513.000000,10.353074 513.000000,19.707878 513.000000,29.531343 
z"/>
<path fill="#DADADC" opacity="1.000000" stroke="none" 
	d="
M469.096069,175.863281 
	C476.205383,182.841125 483.314697,189.818970 490.719696,196.961929 
	C487.656311,206.452560 484.664154,215.930603 480.863678,225.072632 
	C472.322998,245.617203 461.654327,265.072205 449.549469,283.735504 
	C447.841309,286.369141 445.971405,288.897919 443.726868,291.897583 
	C442.805206,292.785492 442.254761,293.194580 441.872009,293.724701 
	C418.394653,326.237305 390.183807,353.837860 356.677094,375.964600 
	C350.772186,379.864014 344.971924,383.921814 339.123322,387.906464 
	C330.169952,392.562714 321.448730,397.753876 312.213776,401.761169 
	C294.311462,409.529510 276.120239,416.631989 257.605408,423.674835 
	C250.404617,416.309570 243.647110,409.279907 237.084442,401.931244 
	C242.522644,399.576416 247.749252,397.496246 253.012177,395.512360 
	C277.162628,386.408875 300.351135,375.337646 322.364014,361.828369 
	C343.201050,349.040680 362.660126,334.538452 380.224243,317.421448 
	C396.209778,301.842865 411.092133,285.332336 423.375061,266.740570 
	C432.689423,252.642120 441.596100,238.140808 449.152283,223.051620 
	C456.782715,207.814194 462.526031,191.631729 469.096069,175.863281 
z"/>
<path fill="#4D9AE8" opacity="1.000000" stroke="none" 
	d="
M339.414429,388.065308 
	C344.971924,383.921814 350.772186,379.864014 356.677094,375.964600 
	C390.183807,353.837860 418.394653,326.237305 441.872009,293.724701 
	C442.254761,293.194580 442.805206,292.785492 443.589905,292.221863 
	C445.729492,297.012939 447.553650,301.903168 449.384186,306.791016 
	C455.510315,323.149048 457.142456,340.227600 455.838715,357.389618 
	C454.014313,381.405212 447.425873,404.355133 437.309296,426.224335 
	C433.801361,433.807526 429.933441,441.229462 426.068542,448.640900 
	C421.736389,456.948364 409.122406,457.936279 402.502930,451.169159 
	C381.779266,429.983246 360.667175,409.177338 339.414429,388.065308 
z"/>
<path fill="#237FDB" opacity="1.000000" stroke="none" 
	d="
M236.889587,402.250214 
	C243.647110,409.279907 250.404617,416.309570 257.236328,423.685852 
	C243.231171,428.327545 229.363815,433.661316 215.005905,436.591583 
	C203.359207,438.968567 191.810547,436.169403 182.450623,427.077606 
	C177.194199,421.808563 172.242584,416.677338 167.351334,411.002075 
	C168.628983,410.812073 169.879044,411.080872 171.058060,411.534332 
	C177.730713,414.100769 184.439926,416.290833 191.715668,414.243744 
	C204.555679,410.631042 217.410767,407.070465 230.219543,403.350403 
	C231.635620,402.939148 232.791229,401.631012 234.361496,400.867950 
	C235.400101,401.414795 236.144852,401.832520 236.889587,402.250214 
z"/>
<path fill="#ECECEE" opacity="1.000000" stroke="none" 
	d="
M237.084442,401.931244 
	C236.144852,401.832520 235.400101,401.414795 234.249115,400.565765 
	C186.549973,352.802917 139.258057,305.470428 91.952858,258.151215 
	C91.378548,257.576752 90.633636,257.172821 89.968361,256.689301 
	C94.637642,244.144638 98.669853,231.313995 104.139565,219.128632 
	C110.780968,204.332962 118.635094,190.081650 126.341537,175.171249 
	C127.708656,173.432831 128.826538,172.194809 129.670258,170.791901 
	C152.667282,132.553604 182.105515,100.210030 218.155075,73.887062 
	C219.571747,72.852631 220.644485,71.347206 221.877472,70.061234 
	C231.854675,63.884945 241.487350,57.039238 251.888184,51.686028 
	C268.338104,43.219414 285.257141,35.653511 302.080170,27.929739 
	C306.562347,25.871878 311.417816,24.627050 316.482056,22.995472 
	C323.773743,29.964514 330.654266,36.978027 337.601898,43.924465 
	C381.199615,87.514687 424.812256,131.089996 468.709717,174.829559 
	C468.999481,174.988907 469.042816,175.426620 469.069458,175.644958 
	C462.526031,191.631729 456.782715,207.814194 449.152283,223.051620 
	C441.596100,238.140808 432.689423,252.642120 423.375061,266.740570 
	C411.092133,285.332336 396.209778,301.842865 380.224243,317.421448 
	C362.660126,334.538452 343.201050,349.040680 322.364014,361.828369 
	C300.351135,375.337646 277.162628,386.408875 253.012177,395.512360 
	C247.749252,397.496246 242.522644,399.576416 237.084442,401.931244 
M210.049622,144.554398 
	C207.445480,147.571182 204.659790,150.451111 202.266037,153.626495 
	C183.902008,177.986847 175.551941,205.143143 178.897705,235.779388 
	C182.209183,266.101624 195.879410,291.012909 219.067352,310.131073 
	C243.119186,329.961456 271.115540,338.565216 302.570557,335.123138 
	C333.401978,331.749298 358.719421,318.014709 377.987885,294.150574 
	C398.093689,269.249298 406.224487,240.432724 402.032898,208.395218 
	C398.791626,183.621017 388.174896,162.324295 370.889526,144.630829 
	C353.449768,126.779320 332.050690,115.839241 307.248199,112.101334 
	C288.527771,109.280037 270.281250,111.284676 252.385880,117.648926 
	C236.396805,123.335236 222.875534,132.690842 210.049622,144.554398 
z"/>
<path fill="#4D9AE8" opacity="1.000000" stroke="none" 
	d="
M221.503174,70.034805 
	C220.644485,71.347206 219.571747,72.852631 218.155075,73.887062 
	C182.105515,100.210030 152.667282,132.553604 129.670258,170.791901 
	C128.826538,172.194809 127.708656,173.432831 126.387695,174.809235 
	C105.520508,154.231018 85.312210,133.248962 64.298599,113.107079 
	C54.893185,104.091850 57.134598,90.810249 68.483597,85.869118 
	C81.537422,80.185745 94.490425,74.233284 107.743958,69.054810 
	C128.143921,61.084061 149.423737,57.396458 171.351791,58.031189 
	C187.408676,58.495979 202.878448,61.716637 217.437714,68.758286 
	C218.598175,69.319557 219.895279,69.598328 221.503174,70.034805 
z"/>
<path fill="#4E9AE8" opacity="1.000000" stroke="none" 
	d="
M89.676910,256.945251 
	C90.633636,257.172821 91.378548,257.576752 91.952858,258.151215 
	C139.258057,305.470428 186.549973,352.802917 233.955246,400.436615 
	C232.791229,401.631012 231.635620,402.939148 230.219543,403.350403 
	C217.410767,407.070465 204.555679,410.631042 191.715668,414.243744 
	C184.439926,416.290833 177.730713,414.100769 171.058060,411.534332 
	C169.879044,411.080872 168.628983,410.812073 167.195618,410.704926 
	C164.897583,408.947357 162.815643,406.942871 160.440796,404.756042 
	C159.711441,404.069092 159.274979,403.564514 158.434479,402.643402 
	C142.422211,386.705322 126.813972,371.183777 111.205727,355.662231 
	C103.352379,347.806885 95.499023,339.951538 87.324783,331.968536 
	C75.954475,319.416901 74.810036,305.233490 79.493561,289.971130 
	C82.840836,279.063171 86.091614,268.125580 89.676910,256.945251 
z"/>
<path fill="#FF6881" opacity="1.000000" stroke="none" 
	d="
M110.842407,355.781952 
	C126.813972,371.183777 142.422211,386.705322 158.203537,402.532501 
	C148.904572,424.775269 131.884659,436.725647 108.565247,439.889069 
	C101.528381,440.843658 94.332939,440.914185 87.212067,440.886993 
	C79.626945,440.858063 73.740570,435.986145 73.252579,428.587921 
	C72.272797,413.734161 73.195885,398.998291 79.866791,385.263733 
	C86.440872,371.728516 96.603569,361.861237 110.842407,355.781952 
z"/>
<path fill="#BEBEBF" opacity="1.000000" stroke="none" 
	d="
M210.294586,144.299408 
	C222.875534,132.690842 236.396805,123.335236 252.385880,117.648926 
	C270.281250,111.284676 288.527771,109.280037 307.248199,112.101334 
	C332.050690,115.839241 353.449768,126.779320 370.889526,144.630829 
	C388.174896,162.324295 398.791626,183.621017 402.032898,208.395218 
	C406.224487,240.432724 398.093689,269.249298 377.987885,294.150574 
	C358.719421,318.014709 333.401978,331.749298 302.570557,335.123138 
	C271.115540,338.565216 243.119186,329.961456 219.067352,310.131073 
	C195.879410,291.012909 182.209183,266.101624 178.897705,235.779388 
	C175.551941,205.143143 183.902008,177.986847 202.266037,153.626495 
	C204.659790,150.451111 207.445480,147.571182 210.294586,144.299408 
M351.598602,175.910492 
	C332.727356,152.803848 308.560486,142.956635 278.907043,146.958893 
	C235.263580,152.849365 205.026764,196.828629 214.924896,239.759445 
	C222.839890,274.088898 249.164734,297.265930 284.077698,300.645111 
	C308.291718,302.988800 329.430725,294.506012 346.659058,276.873291 
	C372.882446,250.034393 375.309296,206.006348 351.598602,175.910492 
z"/>
<path fill="#6DD1E0" opacity="1.000000" stroke="none" 
	d="
M351.824158,176.189056 
	C375.309296,206.006348 372.882446,250.034393 346.659058,276.873291 
	C329.430725,294.506012 308.291718,302.988800 284.077698,300.645111 
	C249.164734,297.265930 222.839890,274.088898 214.924896,239.759445 
	C205.026764,196.828629 235.263580,152.849365 278.907043,146.958893 
	C308.560486,142.956635 332.727356,152.803848 351.824158,176.189056 
M286.260468,207.944260 
	C279.033539,205.611633 274.873657,208.593384 274.908081,216.081543 
	C274.964142,228.283401 285.083710,238.688873 297.298889,239.104980 
	C303.137665,239.303879 306.663361,236.788773 307.015198,232.173737 
	C307.360504,227.644989 304.730438,224.755524 299.064758,223.922836 
	C293.686523,223.132416 290.932922,220.190826 289.992859,214.862732 
	C289.592346,212.592636 287.975220,210.537216 286.260468,207.944260 
M262.724182,193.305176 
	C264.630188,191.246460 266.710754,189.320587 268.401794,187.098282 
	C271.018402,183.659637 270.441101,180.132324 267.494476,177.264984 
	C264.707520,174.553040 261.278107,174.066254 258.022461,176.498611 
	C255.787186,178.168655 253.766342,180.162384 251.822174,182.177841 
	C247.669662,186.482620 247.231766,190.510330 250.361816,194.015610 
	C253.450134,197.474152 257.147827,197.410568 262.724182,193.305176 
M333.717926,244.490005 
	C325.935883,242.755630 322.961823,249.174164 319.013336,253.515167 
	C316.168701,256.642609 316.767853,260.429382 319.784851,263.378754 
	C322.821899,266.347687 326.394592,266.501160 329.729736,263.910400 
	C332.080658,262.084167 334.248413,259.958130 336.220398,257.721252 
	C340.524689,252.838837 339.893677,248.814697 333.717926,244.490005 
z"/>
<path fill="#3B3E4E" opacity="1.000000" stroke="none" 
	d="
M286.585693,208.164246 
	C287.975220,210.537216 289.592346,212.592636 289.992859,214.862732 
	C290.932922,220.190826 293.686523,223.132416 299.064758,223.922836 
	C304.730438,224.755524 307.360504,227.644989 307.015198,232.173737 
	C306.663361,236.788773 303.137665,239.303879 297.298889,239.104980 
	C285.083710,238.688873 274.964142,228.283401 274.908081,216.081543 
	C274.873657,208.593384 279.033539,205.611633 286.585693,208.164246 
z"/>
<path fill="#3B3F4F" opacity="1.000000" stroke="none" 
	d="
M262.466522,193.558533 
	C257.147827,197.410568 253.450134,197.474152 250.361816,194.015610 
	C247.231766,190.510330 247.669662,186.482620 251.822174,182.177841 
	C253.766342,180.162384 255.787186,178.168655 258.022461,176.498611 
	C261.278107,174.066254 264.707520,174.553040 267.494476,177.264984 
	C270.441101,180.132324 271.018402,183.659637 268.401794,187.098282 
	C266.710754,189.320587 264.630188,191.246460 262.466522,193.558533 
z"/>
<path fill="#3B3F4F" opacity="1.000000" stroke="none" 
	d="
M334.072571,244.649689 
	C339.893677,248.814697 340.524689,252.838837 336.220398,257.721252 
	C334.248413,259.958130 332.080658,262.084167 329.729736,263.910400 
	C326.394592,266.501160 322.821899,266.347687 319.784851,263.378754 
	C316.767853,260.429382 316.168701,256.642609 319.013336,253.515167 
	C322.961823,249.174164 325.935883,242.755630 334.072571,244.649689 
z"/>
</svg>